<?xml version="1.0" encoding="UTF-8"?>
<svg version="1.1" xmlns="http://www.w3.org/2000/svg" width="719" height="794">
<path d="M0 0 C3.50451843 0.02571912 7.00906528 0.02740916 10.51366353 0.03210163 C17.09305112 0.04433139 23.67215961 0.07686872 30.25142652 0.11749959 C37.76586816 0.16285701 45.28032611 0.18436176 52.79487145 0.20428133 C68.20002833 0.24563006 83.60490966 0.31557334 99.00986409 0.40557575 C99.08060595 8.90117613 99.13328475 17.39664559 99.16530061 25.89247131 C99.18069697 29.84103996 99.20143159 33.78940164 99.23618245 37.73785114 C99.45623365 63.46420036 98.48086966 88.79653124 93.25986409 114.09307575 C92.87580403 116.00539997 92.87580403 116.00539997 92.48398519 117.956357 C86.71973248 146.1866172 77.85788306 173.16554759 66.00986409 199.40557575 C65.65311604 200.20414997 65.296368 201.00272419 64.9288094 201.82549763 C50.45134655 234.06533715 30.56404077 264.07836593 7.00986409 290.40557575 C6.18873128 291.33756794 5.36759847 292.26956013 4.52158284 293.2297945 C-7.68410783 306.84018364 -20.51832242 320.2030661 -34.99013591 331.40557575 C-36.84743995 332.98522767 -38.70140724 334.56880832 -40.55263591 336.15557575 C-74.6484066 364.5102848 -115.05049393 385.44367276 -156.99013591 399.40557575 C-158.42607097 399.8848653 -158.42607097 399.8848653 -159.89101481 400.37383747 C-177.70046976 406.23676766 -196.29863341 411.45239323 -214.99013591 413.40557575 C-207.00772906 431.40630634 -197.325665 448.01840009 -184.99013591 463.40557575 C-184.20896403 464.3904195 -183.42779216 465.37526325 -182.62294841 466.38995075 C-171.24066462 480.43899149 -158.26711912 493.53177686 -143.64492106 504.19512653 C-141.9976946 505.40004669 -140.3744245 506.63256758 -138.75185466 507.8704195 C-115.07985798 525.65866571 -88.05232521 536.61680668 -59.99013591 545.40557575 C-59.97595622 544.59862263 -59.96177653 543.7916695 -59.94716716 542.96026325 C-57.22578734 473.6754041 -26.05123332 404.55410918 20.00986409 353.40557575 C20.51259847 352.84644489 21.01533284 352.28731403 21.53330159 351.71123981 C30.51547461 341.76587692 39.70586164 332.00054076 50.00986409 323.40557575 C50.81738118 322.72736774 50.81738118 322.72736774 51.64121175 322.03545856 C100.70610894 280.96214265 160.26059244 254.54198168 224.00986409 247.40557575 C224.81423909 247.31203815 225.61861409 247.21850056 226.44736409 247.12212849 C234.20734169 246.31063234 241.96662941 246.15210889 249.76181722 246.11040974 C251.26061088 246.09885301 252.75936223 246.078343 254.25791097 246.0488863 C268.66687517 245.76731375 280.31638068 248.35663632 291.17002034 258.40557575 C299.46287718 267.08594926 303.83643918 277.74453151 304.07627034 289.721982 C303.57367493 303.5966613 298.3091697 314.5954198 288.32236409 324.09307575 C277.77394968 332.8934672 265.33589698 334.56044804 252.07236409 334.78057575 C218.19172926 335.83420352 183.93308723 344.15207434 154.0123055 360.32403278 C151.86815111 361.48211666 149.7106107 362.61294568 147.55283284 363.7454195 C137.37562478 369.16439619 128.07275395 375.28664896 119.00986409 382.40557575 C118.03533284 383.16741169 117.06080159 383.92924763 116.05673909 384.7141695 C109.08716764 390.29978319 102.50643302 396.28310701 96.00986409 402.40557575 C95.27767659 403.09522419 94.54548909 403.78487263 93.79111409 404.4954195 C88.3798217 409.74566152 83.68480692 415.49956464 79.00986409 421.40557575 C78.21580159 422.38268513 77.42173909 423.3597945 76.60361409 424.36651325 C69.55912198 433.21671379 63.66060989 442.61560053 58.00986409 452.40557575 C57.60880452 453.09635212 57.20774495 453.78712849 56.79453206 454.49883747 C39.41782566 484.7822876 31.87603251 518.05190781 28.00986409 552.40557575 C73.32757671 549.20416169 116.76001446 542.61494005 158.00986409 522.40557575 C158.74253499 522.04882771 159.47520589 521.69207966 160.23007894 521.32452106 C171.10361703 515.96739817 181.05538576 509.53522958 191.06113362 502.71807575 C204.7356592 493.50807205 204.7356592 493.50807205 214.00986409 494.40557575 C221.35653353 496.8971562 226.1790208 500.64859017 230.00986409 507.40557575 C232.16517331 513.87150341 232.02739967 521.11086743 229.19736409 527.34307575 C222.86906165 538.3352504 213.3666737 547.2260026 204.50986409 556.15557575 C203.21145589 557.46812336 203.21145589 557.46812336 201.88681722 558.80718708 C195.90291763 564.76125722 189.64105326 570.18579565 183.00986409 575.40557575 C181.82022054 576.34578571 181.82022054 576.34578571 180.60654378 577.30498981 C153.74755541 598.29887535 124.13910548 614.93739993 92.00986409 626.40557575 C91.23948812 626.68836384 90.46911214 626.97115192 89.67539144 627.26250935 C70.35608355 634.33220981 47.73545322 641.40557575 27.00986409 641.40557575 C27.01355126 641.9838833 27.01723844 642.56219086 27.02103734 643.15802288 C27.10958397 657.26486172 27.17566843 671.3716586 27.21711278 685.47871685 C27.23769051 692.30095529 27.26571858 699.1230076 27.3116219 705.94512653 C27.35592616 712.5327648 27.37902359 719.12026099 27.38937306 725.70805454 C27.39674561 728.21738058 27.4111424 730.72669644 27.43278432 733.23593998 C27.46195594 736.75934892 27.4658142 740.2819672 27.46396565 743.8054781 C27.47834676 744.83550953 27.49272786 745.86554096 27.50754476 746.92678547 C27.46040231 755.26840782 25.65003535 763.64523093 19.50986409 769.71807575 C8.68635034 779.65803736 -6.60450175 780.99867005 -20.63857341 780.6516695 C-32.47688581 780.12312646 -44.19121025 777.70458041 -53.11513591 769.43682575 C-60.70938046 760.70344452 -61.44692564 749.60813789 -61.33071208 738.48663044 C-61.33115016 737.36321751 -61.33158824 736.23980457 -61.33203959 735.08234882 C-61.32996981 731.4138651 -61.3067245 727.74585344 -61.28310466 724.07745075 C-61.27750227 721.51627572 -61.27323521 718.95509745 -61.2702415 716.39391804 C-61.26000485 710.36996891 -61.23642426 704.34621864 -61.20619303 698.32234883 C-61.17249447 691.45644483 -61.15612444 684.59053229 -61.14110672 677.72456598 C-61.10986933 663.61814444 -61.05720616 649.51186924 -60.99013591 635.40557575 C-62.14531215 635.20732197 -63.30048839 635.00906818 -64.49066997 634.80480671 C-66.02786745 634.53806733 -67.56504172 634.27119419 -69.10219646 634.00420856 C-69.86100863 633.87434559 -70.61982081 633.74448261 -71.4016273 633.61068439 C-77.664089 632.51858723 -83.72051933 631.00946594 -89.80263591 629.15557575 C-91.32292399 628.69997272 -91.32292399 628.69997272 -92.87392497 628.2351656 C-134.13337163 615.7152803 -171.24060999 596.24383849 -204.99013591 569.40557575 C-205.6113029 568.9171822 -206.23246989 568.42878864 -206.87246013 567.92559528 C-215.77068645 560.87285022 -223.75941752 552.83642256 -231.80263591 544.84307575 C-232.33924846 544.31191151 -232.87586101 543.78074726 -233.42873454 543.23348713 C-240.41925695 536.29584209 -246.89858485 529.16300221 -252.99013591 521.40557575 C-253.46507487 520.81558796 -253.94001384 520.22560017 -254.42934489 519.61773396 C-282.23126448 485.08073318 -301.76473492 444.66251876 -313.292382 401.97686481 C-313.89508996 399.75582905 -314.52418777 397.54522932 -315.16591716 395.33526325 C-321.828275 371.10383048 -323.22570384 345.77643146 -323.24013591 320.78057575 C-323.24081065 319.7313393 -323.2414854 318.68210285 -323.24218059 317.60107136 C-323.22591033 301.66686808 -322.73504137 286.13857046 -319.99013591 270.40557575 C-319.81852946 269.39060017 -319.64692302 268.37562458 -319.47011638 267.32989216 C-308.7627865 205.50678374 -281.19233255 149.69656653 -238.99013591 103.40557575 C-237.44815561 101.67668876 -235.9064869 99.94752381 -234.36513591 98.21807575 C-228.2792767 91.46772931 -221.89345539 85.31110452 -214.99013591 79.40557575 C-214.08908122 78.61538044 -213.18802653 77.82518513 -212.25966716 77.0110445 C-153.39333631 25.77375946 -77.67058552 -0.67108601 0 0 Z M-110.99013591 114.40557575 C-111.63611735 114.74669392 -112.2820988 115.08781208 -112.94765544 115.43926716 C-133.45256608 126.27462112 -151.1963677 140.51400085 -167.99013591 156.40557575 C-168.67076091 157.04366169 -169.35138591 157.68174763 -170.05263591 158.3391695 C-175.17894047 163.28747738 -179.5681947 168.83103019 -183.99013591 174.40557575 C-185.2005656 175.9079781 -185.2005656 175.9079781 -186.43544841 177.440732 C-212.65727469 210.36638673 -228.02808952 249.97803203 -233.99013591 291.40557575 C-234.0968864 292.123503 -234.20363688 292.84143024 -234.31362224 293.58111286 C-235.22571555 300.52631509 -235.10096632 307.47503632 -235.05263591 314.46807575 C-235.04812419 315.71524372 -235.04361247 316.96241169 -235.03896403 318.24737263 C-235.02726754 321.30015796 -235.01087676 324.35284073 -234.99013591 327.40557575 C-219.67468541 325.04184455 -204.81319415 321.94222628 -189.99013591 317.40557575 C-188.63831218 316.99662067 -188.63831218 316.99662067 -187.25917888 316.57940388 C-164.05569912 309.42207049 -141.39064253 298.58046343 -120.99013591 285.40557575 C-120.33335856 284.98244099 -119.67658122 284.55930622 -118.99990153 284.12334919 C-108.43508461 277.24144578 -98.60778502 269.54761768 -88.99013591 261.40557575 C-88.14579997 260.69401325 -87.30146403 259.98245075 -86.43154216 259.24932575 C-73.66751105 248.10015473 -61.24471717 235.91460496 -50.99013591 222.40557575 C-50.2102531 221.4310445 -49.43037028 220.45651325 -48.62685466 219.45245075 C-21.18564748 185.00577865 8.00986409 132.50911983 8.00986409 87.40557575 C-33.34980866 86.64899637 -74.43083958 94.57951354 -110.99013591 114.40557575 Z " fill="#60833C" transform="translate(345.99013590812683,6.594424247741699)"/>
<path d="M0 0 C1.49879367 -0.01155673 2.99754501 -0.03206673 4.49609375 -0.06152344 C18.90505795 -0.34309599 30.55456346 2.24622658 41.40820312 12.29516602 C49.70105996 20.97553953 54.07462196 31.63412177 54.31445312 43.61157227 C53.81185772 57.48625156 48.54735249 68.48501007 38.56054688 77.98266602 C28.01213247 86.78305747 15.57407976 88.4500383 2.31054688 88.67016602 C-31.57008796 89.72379378 -65.82872999 98.0416646 -95.74951172 114.21362305 C-97.89366611 115.37170692 -100.05120652 116.50253594 -102.20898438 117.63500977 C-112.38619244 123.05398645 -121.68906327 129.17623922 -130.75195312 136.29516602 C-131.72648437 137.05700195 -132.70101563 137.81883789 -133.70507812 138.60375977 C-140.67464958 144.18937346 -147.2553842 150.17269727 -153.75195312 156.29516602 C-154.48414063 156.98481445 -155.21632813 157.67446289 -155.97070312 158.38500977 C-161.38199551 163.63525178 -166.07701029 169.3891549 -170.75195312 175.29516602 C-171.54601562 176.27227539 -172.34007812 177.24938477 -173.15820312 178.25610352 C-180.20269524 187.10630405 -186.10120733 196.50519079 -191.75195312 206.29516602 C-192.1530127 206.98594238 -192.55407227 207.67671875 -192.96728516 208.38842773 C-210.34399155 238.67187787 -217.88578471 271.94149807 -221.75195312 306.29516602 C-176.4342405 303.09375196 -133.00180275 296.50453031 -91.75195312 276.29516602 C-90.65294678 275.76004395 -90.65294678 275.76004395 -89.53173828 275.21411133 C-78.65820019 269.85698844 -68.70643146 263.42481985 -58.70068359 256.60766602 C-45.02615801 247.39766232 -45.02615801 247.39766232 -35.75195312 248.29516602 C-28.40528368 250.78674646 -23.58279641 254.53818044 -19.75195312 261.29516602 C-17.5966439 267.76109368 -17.73441754 275.0004577 -20.56445312 281.23266602 C-26.89275557 292.22484067 -36.39514351 301.11559286 -45.25195312 310.04516602 C-46.11755859 310.92019775 -46.98316406 311.79522949 -47.875 312.69677734 C-53.85889959 318.65084749 -60.12076396 324.07538592 -66.75195312 329.29516602 C-67.54504883 329.92197266 -68.33814453 330.5487793 -69.15527344 331.19458008 C-96.01426181 352.18846562 -125.62271174 368.82699019 -157.75195312 380.29516602 C-158.5223291 380.5779541 -159.29270508 380.86074219 -160.08642578 381.15209961 C-179.40573367 388.22180007 -202.02636399 395.29516602 -222.75195312 395.29516602 C-222.74826595 395.87347357 -222.74457878 396.45178112 -222.74077988 397.04761314 C-222.65223324 411.15445198 -222.58614879 425.26124887 -222.54470444 439.36830711 C-222.5241267 446.19054555 -222.49609864 453.01259787 -222.45019531 459.8347168 C-222.40589105 466.42235506 -222.38279363 473.00985126 -222.37244415 479.59764481 C-222.3650716 482.10697084 -222.35067482 484.6162867 -222.3290329 487.12553024 C-222.29986128 490.64893919 -222.29600302 494.17155747 -222.29785156 497.69506836 C-222.28347046 498.72509979 -222.26908936 499.75513123 -222.25427246 500.81637573 C-222.30141491 509.15799809 -224.11178186 517.53482119 -230.25195312 523.60766602 C-241.07546688 533.54762763 -256.36631897 534.88826032 -270.40039062 534.54125977 C-282.23870302 534.01271672 -293.95302747 531.59417067 -302.87695312 523.32641602 C-310.44710662 514.6207395 -311.20947345 503.55805779 -311.0925293 492.46801758 C-311.09296738 491.35435822 -311.09340546 490.24069885 -311.09385681 489.09329224 C-311.09178731 485.4572724 -311.06854339 481.82172907 -311.04492188 478.18579102 C-311.03931938 475.64703625 -311.03505237 473.10827822 -311.03205872 470.56951904 C-311.02182276 464.59871114 -310.99824296 458.62805298 -310.96801025 452.65732169 C-310.93430962 445.85187624 -310.91794115 439.04642218 -310.90292394 432.24091387 C-310.87168802 418.25890562 -310.81902617 404.27704505 -310.75195312 390.29516602 C-310.09195313 390.29516602 -309.43195313 390.29516602 -308.75195312 390.29516602 C-308.75195312 389.30516602 -308.75195312 388.31516602 -308.75195312 387.29516602 C-309.53570312 387.06958008 -310.31945312 386.84399414 -311.12695312 386.61157227 C-315.89449067 384.88025744 -320.27079126 382.5966611 -324.75195312 380.23266602 C-325.68531494 379.74096924 -326.61867676 379.24927246 -327.58032227 378.74267578 C-335.26717085 374.64377428 -342.57128754 370.22864489 -349.75195312 365.29516602 C-350.32461914 364.90506348 -350.89728516 364.51496094 -351.48730469 364.11303711 C-360.37845744 358.03129268 -368.66145439 351.40019743 -376.75195312 344.29516602 C-377.61433594 343.54493164 -378.47671875 342.79469727 -379.36523438 342.02172852 C-389.72970995 332.86396222 -399.24677608 323.21453687 -407.75195312 312.29516602 C-408.74778839 311.05146942 -409.74390015 309.80799418 -410.74023438 308.56469727 C-419.349496 297.69664757 -426.74458495 286.25006432 -433.75195312 274.29516602 C-434.13689941 273.64402832 -434.5218457 272.99289062 -434.91845703 272.32202148 C-451.59752342 243.77741561 -466.05810196 206.72617687 -466.75195312 173.29516602 C-464.46526834 176.13234899 -462.71935237 179.11173693 -460.99975586 182.31933594 C-458.09539311 187.70665524 -455.41804409 192.08117476 -450.45117188 195.77563477 C-447.51514399 198.40118614 -445.78314195 201.83258529 -443.75195312 205.17407227 C-436.96064527 215.77222652 -428.44602542 225.23695887 -419.75195312 234.29516602 C-419.21699219 234.8573584 -418.68203125 235.41955078 -418.13085938 235.9987793 C-410.42148 244.06202452 -402.43701997 251.37641243 -393.47119141 258.02026367 C-391.80223991 259.25787582 -390.1501776 260.51570421 -388.49804688 261.77563477 C-364.81741399 279.54581316 -337.81250519 290.5069097 -309.75195312 299.29516602 C-309.73777344 298.48821289 -309.72359375 297.68125977 -309.70898438 296.84985352 C-306.98760456 227.56499436 -275.81305053 158.44369945 -229.75195312 107.29516602 C-229.24921875 106.73603516 -228.74648438 106.1769043 -228.22851562 105.60083008 C-219.24634261 95.65546719 -210.05595557 85.89013102 -199.75195312 77.29516602 C-198.94443604 76.61695801 -198.94443604 76.61695801 -198.12060547 75.92504883 C-149.05570827 34.85173291 -89.50122478 8.43157194 -25.75195312 1.29516602 C-24.94757813 1.20162842 -24.14320313 1.10809082 -23.31445312 1.01171875 C-15.55447553 0.2002226 -7.79518781 0.04169915 0 0 Z " fill="#156C2B" transform="translate(595.751953125,252.704833984375)"/>
<path d="M0 0 C1.908769 2.86315349 2.29141719 3.73853634 2.6328125 6.95703125 C2.71692383 7.73240234 2.80103516 8.50777344 2.88769531 9.30664062 C2.96600586 10.13357422 3.04431641 10.96050781 3.125 11.8125 C3.2084668 12.66908203 3.29193359 13.52566406 3.37792969 14.40820312 C6.96204527 53.52626467 -4.23749297 91.25355711 -27 123 C-27.59941406 123.845625 -28.19882812 124.69125 -28.81640625 125.5625 C-42.41044774 143.56624176 -60.62657713 159.17910969 -81 169 C-81.99 169 -82.98 169 -84 169 C-95.43713734 131.76382386 -94.14833803 96.30607427 -76.16015625 61.38671875 C-59.82822514 31.36134846 -32.50944348 10.07633648 0 0 Z " fill="#61843D" transform="translate(543,80)"/>
<path d="M0 0 C23.36174996 15.10075092 37.95780777 36.94957019 44 64 C44.78743077 68.02407801 45.11248258 71.77642806 45.0625 75.875 C45.05347656 76.84179688 45.04445313 77.80859375 45.03515625 78.8046875 C45.02355469 79.52914062 45.01195312 80.25359375 45 81 C11.81080947 78.00716586 -15.63865119 62.77393977 -37.625 37.93359375 C-48.1716625 24.90638399 -61 4.30792291 -61 -13 C-41.56298973 -18.6899913 -16.81067626 -9.82777997 0 0 Z " fill="#61843D" transform="translate(572,411)"/>
<path d="M0 0 C0.24783684 5.65518608 -0.59253875 10.48555468 -2.0625 15.9375 C-2.39749512 17.18213013 -2.39749512 17.18213013 -2.73925781 18.4519043 C-10.98893174 47.82803912 -29.82577564 71.50174919 -56.10693359 86.94775391 C-66.71403258 92.84362657 -80.7084408 99.57010942 -93 99 C-94.05789938 72.08233796 -86.2069976 48.38024837 -68.03515625 28.13671875 C-50.68499458 9.70749629 -25.32911151 -1.00868143 0 0 Z " fill="#61843D" transform="translate(640,130)"/>
<path d="M0 0 C2.69366238 2.15640185 5.25907632 4.38990469 7.796875 6.7265625 C8.42722656 7.26539063 9.05757812 7.80421875 9.70703125 8.359375 C18.95094808 16.73996474 28.77681002 32.14576107 29.796875 44.7265625 C4.22332239 49.08249729 -21.30318625 43.45111333 -43.203125 29.7265625 C-46.69715721 27.22489083 -49.95894562 24.54064234 -53.203125 21.7265625 C-54.21375 20.9634375 -55.224375 20.2003125 -56.265625 19.4140625 C-64.43868605 11.93658111 -71.08721551 2.54018724 -76.203125 -7.2734375 C-76.203125 -8.2634375 -76.203125 -9.2534375 -76.203125 -10.2734375 C-50.48854524 -18.85773835 -22.23625093 -15.78231469 0 0 Z " fill="#61843D" transform="translate(661.203125,382.2734375)"/>
</svg>
