<?xml version="1.0" encoding="UTF-8"?>
<svg version="1.1" xmlns="http://www.w3.org/2000/svg" width="1301" height="464">
<path d="M0 0 C40.59 0 81.18 0 123 0 C123 10.23 123 20.46 123 31 C93.63 31 64.26 31 34 31 C34 46.18 34 61.36 34 77 C61.72 77 89.44 77 118 77 C118 87.23 118 97.46 118 108 C90.28 108 62.56 108 34 108 C34 124.83 34 141.66 34 159 C65.02 159 96.04 159 128 159 C128 169.23 128 179.46 128 190 C85.76 190 43.52 190 0 190 C0 127.3 0 64.6 0 0 Z " fill="#62853F" transform="translate(77,83)"/>
<path d="M0 0 C39.6 0 79.2 0 120 0 C120 10.23 120 20.46 120 31 C91.62 31 63.24 31 34 31 C34 47.17 34 63.34 34 80 C60.73 80 87.46 80 115 80 C115 90.23 115 100.46 115 111 C88.27 111 61.54 111 34 111 C34 137.07 34 163.14 34 190 C22.78 190 11.56 190 0 190 C0 127.3 0 64.6 0 0 Z " fill="#040404" transform="translate(522,83)"/>
<path d="M0 0 C1.09417236 0.00829834 2.18834473 0.01659668 3.31567383 0.02514648 C11.71934113 0.20039179 18.81450013 1.15298441 26.625 4.4375 C27.78902344 4.911875 28.95304688 5.38625 30.15234375 5.875 C46.74737465 13.37069257 58.16880711 26.46625766 64.625 43.4375 C66.80839776 50.01498576 68.22455706 56.51734544 68.625 63.4375 C68.66625 64.11941406 68.7075 64.80132812 68.75 65.50390625 C69.33080381 85.21493569 62.32023555 102.91963766 48.89453125 117.19140625 C36.75211871 129.20842383 20.45455793 135.71250116 3.44238281 135.90600586 C2.40952148 135.89577393 1.37666016 135.88554199 0.3125 135.875 C-0.77836914 135.86670166 -1.86923828 135.85840332 -2.99316406 135.84985352 C-21.53378522 135.46347599 -38.14603111 128.70667852 -51.375 115.4375 C-64.98903804 98.72743462 -70.27200505 79.83696972 -68.375 58.4375 C-66.00554764 40.78113079 -57.34724183 24.06041559 -43.125 13.125 C-29.90355896 4.12630652 -15.93561266 -0.15726341 0 0 Z M-18.375 34.4375 C-19.14070312 34.92347656 -19.90640625 35.40945312 -20.6953125 35.91015625 C-29.13023983 41.79790256 -33.56315342 49.7360243 -35.90625 59.65234375 C-37.8604122 71.26332418 -35.60288941 82.16007556 -29.23828125 92.078125 C-23.6989002 99.09235174 -16.19353721 104.49931723 -7.20849609 105.7355957 C-4.96255807 105.87388011 -2.74988088 105.90608769 -0.5 105.875 C0.29083984 105.86525146 1.08167969 105.85550293 1.89648438 105.84545898 C12.34555542 105.52885299 18.86215923 102.0942813 26.42578125 94.875 C33.42007686 87.12288551 36.02027158 78.45606687 36 68.1875 C35.99838867 67.34356689 35.99677734 66.49963379 35.99511719 65.63012695 C35.86884713 59.20954204 34.89248268 54.05028384 31.625 48.4375 C31.068125 47.40625 30.51125 46.375 29.9375 45.3125 C24.24874649 38.23999563 17.70991487 32.28684654 8.625 30.4375 C-0.67083208 29.44829982 -10.37165668 29.02158293 -18.375 34.4375 Z " fill="#050505" transform="translate(729.375,140.5625)"/>
<path d="M0 0 C1.09417236 0.00829834 2.18834473 0.01659668 3.31567383 0.02514648 C11.71934113 0.20039179 18.81450013 1.15298441 26.625 4.4375 C27.78902344 4.911875 28.95304687 5.38625 30.15234375 5.875 C46.74737465 13.37069257 58.16880711 26.46625766 64.625 43.4375 C66.80839776 50.01498576 68.22455706 56.51734544 68.625 63.4375 C68.66625 64.11941406 68.7075 64.80132812 68.75 65.50390625 C69.33080381 85.21493569 62.32023555 102.91963766 48.89453125 117.19140625 C36.75211871 129.20842383 20.45455793 135.71250116 3.44238281 135.90600586 C2.40952148 135.89577393 1.37666016 135.88554199 0.3125 135.875 C-0.77836914 135.86670166 -1.86923828 135.85840332 -2.99316406 135.84985352 C-21.53378522 135.46347599 -38.14603111 128.70667852 -51.375 115.4375 C-64.98903804 98.72743462 -70.27200505 79.83696972 -68.375 58.4375 C-66.00554764 40.78113079 -57.34724183 24.06041559 -43.125 13.125 C-29.90355896 4.12630652 -15.93561266 -0.15726341 0 0 Z M-18.375 34.4375 C-19.14070313 34.92347656 -19.90640625 35.40945312 -20.6953125 35.91015625 C-29.13023983 41.79790256 -33.56315342 49.7360243 -35.90625 59.65234375 C-37.8604122 71.26332418 -35.60288941 82.16007556 -29.23828125 92.078125 C-23.6989002 99.09235174 -16.19353721 104.49931723 -7.20849609 105.7355957 C-4.96255807 105.87388011 -2.74988088 105.90608769 -0.5 105.875 C0.29083984 105.86525146 1.08167969 105.85550293 1.89648438 105.84545898 C12.34555542 105.52885299 18.86215923 102.0942813 26.42578125 94.875 C33.42007686 87.12288551 36.02027158 78.45606687 36 68.1875 C35.99838867 67.34356689 35.99677734 66.49963379 35.99511719 65.63012695 C35.86884713 59.20954204 34.89248268 54.05028384 31.625 48.4375 C31.068125 47.40625 30.51125 46.375 29.9375 45.3125 C24.24874649 38.23999563 17.70991487 32.28684654 8.625 30.4375 C-0.67083208 29.44829982 -10.37165668 29.02158293 -18.375 34.4375 Z " fill="#648641" transform="translate(421.375,140.5625)"/>
<path d="M0 0 C10.56 0 21.12 0 32 0 C32.04898438 4.95128906 32.09796875 9.90257812 32.1484375 15.00390625 C32.18389076 18.1712424 32.21988866 21.33855418 32.2578125 24.50585938 C32.31774102 29.51517946 32.37582936 34.5244661 32.421875 39.53393555 C32.45919333 43.5800503 32.50566757 47.6259723 32.55806351 51.67191887 C32.57636384 53.20295715 32.59155788 54.73403634 32.60334396 56.26513863 C32.40571253 77.11634889 32.40571253 77.11634889 40 96 C45.83261859 101.56133401 51.19181325 101.50081464 58.8671875 101.3359375 C65.34725533 100.97937169 70.08683828 98.68955016 74.83203125 94.30859375 C83.31026347 84.42763697 82.46514703 70.44517714 82.51171875 58.203125 C82.52860031 56.51632409 82.54675511 54.8295355 82.56611633 53.14276123 C82.61324556 48.74365082 82.64329311 44.34459035 82.66955566 39.9453125 C82.69955025 35.44000389 82.74601469 30.93486679 82.79101562 26.4296875 C82.876626 17.61986258 82.94263132 8.81005413 83 0 C93.56 0 104.12 0 115 0 C115 42.57 115 85.14 115 129 C104.77 129 94.54 129 84 129 C83.67 123.72 83.34 118.44 83 113 C82.05125 114.340625 81.1025 115.68125 80.125 117.0625 C74.06994743 124.81443222 66.56833816 129.74444569 57 132 C53.38421601 132.41825384 49.82481262 132.47735923 46.1875 132.4375 C45.21989746 132.42992676 44.25229492 132.42235352 43.25537109 132.41455078 C32.20000941 132.16021249 23.20491665 129.639651 15 122 C13.96552734 121.04480469 13.96552734 121.04480469 12.91015625 120.0703125 C-0.80607676 106.12419849 -0.29684999 86.67674927 -0.1953125 68.45703125 C-0.19157616 66.47735233 -0.18873212 64.49767155 -0.18673706 62.51799011 C-0.17914951 57.34116389 -0.15954361 52.16445226 -0.1373291 46.9876709 C-0.11676486 41.69166615 -0.10771285 36.39564265 -0.09765625 31.09960938 C-0.07629254 20.73301481 -0.04115086 10.36653492 0 0 Z " fill="#040404" transform="translate(956,144)"/>
<path d="M0 0 C7.62325983 5.83739126 7.62325983 5.83739126 10.234375 9.7109375 C9.85645981 13.32440242 8.3336246 14.91784616 5.70703125 17.3125 C4.64258789 18.29476562 4.64258789 18.29476562 3.55664062 19.296875 C2.81091797 19.96976563 2.06519531 20.64265625 1.296875 21.3359375 C-0.17058531 22.68227815 -1.63803377 24.02863173 -3.10546875 25.375 C-3.75894287 25.96748535 -4.41241699 26.5599707 -5.08569336 27.17041016 C-6.34025444 28.3208651 -7.5619909 29.5073034 -8.765625 30.7109375 C-12.99429677 30.56512123 -14.96862459 27.57453316 -17.765625 24.7109375 C-25.51566442 19.13090912 -32.50792058 19.00842978 -41.765625 19.7109375 C-45.58468399 20.77916704 -48.79136729 22.10990732 -50.9375 25.63671875 C-52.22460449 28.86055123 -52.18709719 31.27894968 -51.765625 34.7109375 C-48.20447045 39.10057829 -45.01518466 40.66588955 -39.640625 42.2109375 C-38.95049316 42.41541504 -38.26036133 42.61989258 -37.54931641 42.83056641 C-33.71700239 43.94736338 -29.86211665 44.94479597 -25.984375 45.890625 C-10.56689352 49.6668426 2.58906044 53.80609055 11.6015625 67.83984375 C16.31120009 77.17791827 15.83563952 90.94296426 12.796875 100.7734375 C8.02540422 111.55528726 -1.10545229 118.69916289 -11.85546875 122.92578125 C-30.55518501 129.42098554 -53.97038183 129.5222674 -72.1171875 121.16796875 C-78.66455305 117.61809438 -83.84583792 113.28187287 -88.765625 107.7109375 C-84.52745963 102.64469982 -80.09153537 97.91055681 -75.390625 93.2734375 C-74.74996094 92.63728516 -74.10929687 92.00113281 -73.44921875 91.34570312 C-71.89031621 89.79843418 -70.32911084 88.25357258 -68.765625 86.7109375 C-65.45495758 88.2797164 -63.22116456 90.03436926 -60.578125 92.5859375 C-52.11401816 100.1065494 -44.85579821 101.54158405 -33.75390625 101.1015625 C-27.92182307 100.67287251 -24.25628244 98.81242971 -19.765625 95.0234375 C-18.1831384 91.36393724 -18.23383131 87.63377926 -18.765625 83.7109375 C-20.43973732 79.49153827 -22.50448228 78.45513709 -26.48730469 76.6171875 C-30.20999003 75.13641082 -34.00152346 74.15055402 -37.890625 73.2109375 C-39.56922764 72.78470873 -41.24761171 72.3576183 -42.92578125 71.9296875 C-44.15578857 71.6203125 -44.15578857 71.6203125 -45.41064453 71.3046875 C-59.97844696 67.63177691 -72.65913408 64.11810225 -81.43359375 51.22265625 C-86.21352645 42.20946937 -86.21427654 30.11702776 -83.703125 20.3359375 C-79.99232663 9.98751387 -72.6182928 2.17451852 -63.078125 -2.9765625 C-44.09871633 -11.73194448 -17.79566634 -11.76424923 0 0 Z " fill="#060606" transform="translate(1186.765625,149.2890625)"/>
<path d="M0 0 C2.89990007 2.49750066 5.46742459 5.13932454 8 8 C3.85220343 13.88240079 -0.72650546 18.9812156 -5.875 24 C-6.56335938 24.67933594 -7.25171875 25.35867187 -7.9609375 26.05859375 C-9.63607846 27.71046886 -11.3157336 29.35743925 -13 31 C-17.57090652 28.80257766 -21.39314766 25.81491092 -25.44140625 22.77734375 C-31.50121496 18.56785831 -39.87034338 19.33216335 -47 20 C-50.40703932 20.83976321 -53.05690295 22.11264317 -56 24 C-56.69480469 24.4125 -57.38960937 24.825 -58.10546875 25.25 C-66.25262154 30.63048364 -70.32858957 38.89287016 -72.53125 48.21484375 C-74.47585761 59.76905399 -72.24975637 70.74225689 -65.9375 80.63671875 C-60.77860023 86.92932835 -53.32078567 92.29037661 -45.07763672 93.21582031 C-42.94234844 93.33997085 -40.82635094 93.37975512 -38.6875 93.375 C-37.9356543 93.37338867 -37.18380859 93.37177734 -36.40917969 93.37011719 C-28.16359422 93.18815057 -22.07324774 90.69366976 -16 85 C-15.67 84.34 -15.34 83.68 -15 83 C-11.50876819 83.56553431 -10.14360755 84.58730832 -7.9375 87.3125 C-5.73175634 89.97576691 -3.49313579 92.56226303 -1.1015625 95.05859375 C-0.60019775 95.58606201 -0.09883301 96.11353027 0.41772461 96.65698242 C1.41932961 97.70685755 2.42783902 98.75019509 3.44360352 99.78637695 C6.33860763 102.85349182 7 103.59323415 7 108 C-3.51977197 118.40103865 -20.81896903 124.28724394 -35.38330078 124.46850586 C-36.32931152 124.45827393 -37.27532227 124.44804199 -38.25 124.4375 C-39.25144043 124.42920166 -40.25288086 124.42090332 -41.28466797 124.41235352 C-59.51624056 124.00033229 -76.03327496 117.00613758 -89 104 C-102.61403804 87.28993462 -107.89700505 68.39946972 -106 47 C-103.63054764 29.34363079 -94.97224183 12.62291559 -80.75 1.6875 C-56.36753045 -14.90754204 -24.85692401 -16.51611862 0 0 Z " fill="#050505" transform="translate(927,152)"/>
<path d="M0 0 C2.89990007 2.49750066 5.46742459 5.13932454 8 8 C3.85220343 13.88240079 -0.72650546 18.9812156 -5.875 24 C-6.56335938 24.67933594 -7.25171875 25.35867187 -7.9609375 26.05859375 C-9.63607846 27.71046886 -11.3157336 29.35743925 -13 31 C-17.57090652 28.80257766 -21.39314766 25.81491092 -25.44140625 22.77734375 C-31.50121496 18.56785831 -39.87034338 19.33216335 -47 20 C-50.40703932 20.83976321 -53.05690295 22.11264317 -56 24 C-56.69480469 24.4125 -57.38960938 24.825 -58.10546875 25.25 C-66.25262154 30.63048364 -70.32858957 38.89287016 -72.53125 48.21484375 C-74.47585761 59.76905399 -72.24975637 70.74225689 -65.9375 80.63671875 C-60.77860023 86.92932835 -53.32078567 92.29037661 -45.07763672 93.21582031 C-42.94234844 93.33997085 -40.82635094 93.37975512 -38.6875 93.375 C-37.9356543 93.37338867 -37.18380859 93.37177734 -36.40917969 93.37011719 C-28.16359422 93.18815057 -22.07324774 90.69366976 -16 85 C-15.67 84.34 -15.34 83.68 -15 83 C-11.50876819 83.56553431 -10.14360755 84.58730832 -7.9375 87.3125 C-5.73175634 89.97576691 -3.49313579 92.56226303 -1.1015625 95.05859375 C-0.60019775 95.58606201 -0.09883301 96.11353027 0.41772461 96.65698242 C1.41932961 97.70685755 2.42783902 98.75019509 3.44360352 99.78637695 C6.33860763 102.85349182 7 103.59323415 7 108 C-3.51977197 118.40103865 -20.81896903 124.28724394 -35.38330078 124.46850586 C-36.32931152 124.45827393 -37.27532227 124.44804199 -38.25 124.4375 C-39.25144043 124.42920166 -40.25288086 124.42090332 -41.28466797 124.41235352 C-59.51624056 124.00033229 -76.03327496 117.00613758 -89 104 C-102.61403804 87.28993462 -107.89700505 68.39946972 -106 47 C-103.63054764 29.34363079 -94.97224183 12.62291559 -80.75 1.6875 C-56.36753045 -14.90754204 -24.85692401 -16.51611862 0 0 Z " fill="#648641" transform="translate(333,152)"/>
<path d="M0 0 C31 0 31 0 39 4 C43.18292383 8.29300077 45.06867042 12.3594952 45.375 18.3125 C45.22742396 23.23989984 44.05424902 27.09260879 41 31 C36.75555335 34.55811059 32.24776421 36.34045063 27 38 C27.76183594 38.88300781 28.52367187 39.76601563 29.30859375 40.67578125 C34.30722294 46.48003841 39.29137971 52.29636172 44.1875 58.1875 C44.90292969 59.04730469 45.61835937 59.90710938 46.35546875 60.79296875 C48 63 48 63 49 66 C45.4957031 66.64628426 42.49346991 66.77632665 39 66 C36.17701591 63.63734534 34.29477471 60.76138993 32.23535156 57.73046875 C29.69823859 54.17650496 26.84405864 50.86342879 24.0625 47.5 C22.92579568 46.11670736 21.79150742 44.73142423 20.66015625 43.34375 C20.17168213 42.74755859 19.68320801 42.15136719 19.17993164 41.53710938 C18 40 18 40 17 38 C14.03 37.67 11.06 37.34 8 37 C8 46.57 8 56.14 8 66 C5.36 66 2.72 66 0 66 C0 44.22 0 22.44 0 0 Z M8 7 C8 14.59 8 22.18 8 30 C11.361875 30.061875 14.72375 30.12375 18.1875 30.1875 C19.23832764 30.21481201 20.28915527 30.24212402 21.37182617 30.27026367 C27.60676568 30.32586338 31.07962139 29.61827048 35.8125 25.375 C37.68587786 21.62824429 37.77902557 18.09342525 37 14 C35.28095248 10.93118184 33.19285833 8.59642916 30 7 C28.3325394 6.91573906 26.66174813 6.89274857 24.9921875 6.90234375 C23.65969971 6.90609009 23.65969971 6.90609009 22.30029297 6.90991211 C21.16994629 6.91901611 20.03959961 6.92812012 18.875 6.9375 C15.28625 6.958125 11.6975 6.97875 8 7 Z " fill="#1C1C1C" transform="translate(779,315)"/>
<path d="M0 0 C31 0 31 0 39 4 C43.18292383 8.29300077 45.06867042 12.3594952 45.375 18.3125 C45.22742396 23.23989984 44.05424902 27.09260879 41 31 C36.75555335 34.55811059 32.24776421 36.34045063 27 38 C27.76183594 38.88300781 28.52367187 39.76601563 29.30859375 40.67578125 C34.30722294 46.48003841 39.29137971 52.29636172 44.1875 58.1875 C44.90292969 59.04730469 45.61835938 59.90710938 46.35546875 60.79296875 C48 63 48 63 49 66 C45.4957031 66.64628426 42.49346991 66.77632665 39 66 C36.17701591 63.63734534 34.29477471 60.76138993 32.23535156 57.73046875 C29.69823859 54.17650496 26.84405864 50.86342879 24.0625 47.5 C22.92579568 46.11670736 21.79150742 44.73142423 20.66015625 43.34375 C20.17168213 42.74755859 19.68320801 42.15136719 19.17993164 41.53710938 C18 40 18 40 17 38 C14.03 37.67 11.06 37.34 8 37 C8 46.57 8 56.14 8 66 C5.36 66 2.72 66 0 66 C0 44.22 0 22.44 0 0 Z M8 7 C8 14.59 8 22.18 8 30 C11.361875 30.061875 14.72375 30.12375 18.1875 30.1875 C19.23832764 30.21481201 20.28915527 30.24212402 21.37182617 30.27026367 C27.60676568 30.32586338 31.07962139 29.61827048 35.8125 25.375 C37.68587786 21.62824429 37.77902557 18.09342525 37 14 C35.28095248 10.93118184 33.19285833 8.59642916 30 7 C28.3325394 6.91573906 26.66174813 6.89274857 24.9921875 6.90234375 C23.65969971 6.90609009 23.65969971 6.90609009 22.30029297 6.90991211 C21.16994629 6.91901611 20.03959961 6.92812012 18.875 6.9375 C15.28625 6.958125 11.6975 6.97875 8 7 Z " fill="#1C1C1C" transform="translate(250,315)"/>
<path d="M0 0 C2.64 0 5.28 0 8 0 C8 9.24 8 18.48 8 28 C19.55 28 31.1 28 43 28 C43 18.76 43 9.52 43 0 C45.64 0 48.28 0 51 0 C51 21.78 51 43.56 51 66 C48.36 66 45.72 66 43 66 C43 56.1 43 46.2 43 36 C31.45 36 19.9 36 8 36 C8 45.9 8 55.8 8 66 C5.36 66 2.72 66 0 66 C0 44.22 0 22.44 0 0 Z " fill="#222222" transform="translate(999,315)"/>
<path d="M0 0 C14.52 0 29.04 0 44 0 C44 2.31 44 4.62 44 7 C32.12 7 20.24 7 8 7 C8 14.26 8 21.52 8 29 C18.89 29 29.78 29 41 29 C41 31.31 41 33.62 41 36 C30.11 36 19.22 36 8 36 C8 43.59 8 51.18 8 59 C19.88 59 31.76 59 44 59 C44 61.31 44 63.62 44 66 C29.48 66 14.96 66 0 66 C0 44.22 0 22.44 0 0 Z " fill="#1A1A1A" transform="translate(561,315)"/>
<path d="M0 0 C14.52 0 29.04 0 44 0 C44 2.31 44 4.62 44 7 C32.12 7 20.24 7 8 7 C8 14.26 8 21.52 8 29 C18.89 29 29.78 29 41 29 C41 31.31 41 33.62 41 36 C30.11 36 19.22 36 8 36 C8 43.59 8 51.18 8 59 C19.88 59 31.76 59 44 59 C44 61.31 44 63.62 44 66 C29.48 66 14.96 66 0 66 C0 44.22 0 22.44 0 0 Z " fill="#1A1A1A" transform="translate(358,315)"/>
<path d="M0 0 C1.98 0 3.96 0 6 0 C8.72144703 5.31061182 11.17351739 10.63399314 13.390625 16.171875 C13.84975533 17.30719666 13.84975533 17.30719666 14.31816101 18.4654541 C15.29866782 20.8923487 16.27447421 23.32109946 17.25 25.75 C17.92236622 27.41774049 18.59497446 29.08538343 19.26782227 30.75292969 C20.89351623 34.78426586 22.51529306 38.8171637 24.13580322 42.85058594 C25.34154246 45.84947803 26.55171173 48.84657781 27.76171875 51.84375 C28.48732188 53.64569537 29.21262028 55.4477635 29.9375 57.25 C30.26073242 58.05147461 30.58396484 58.85294922 30.91699219 59.67871094 C33 64.88268392 33 64.88268392 33 66 C30.03 66 27.06 66 24 66 C22.99580363 63.5433053 21.99649499 61.08481647 21 58.625 C20.57074219 57.57699219 20.57074219 57.57699219 20.1328125 56.5078125 C18 51.2265625 18 51.2265625 18 49 C8.1 49 -1.8 49 -12 49 C-12.99 51.97 -13.98 54.94 -15 58 C-15.96788417 60.68060101 -16.98331484 63.33725314 -18 66 C-20.97 66 -23.94 66 -27 66 C-21.37618969 51.88092801 -15.71294333 37.77797971 -10.01223755 23.68978882 C-9.33839377 22.02402197 -8.66511324 20.35802716 -7.99240112 18.69180298 C-7.03823712 16.3290256 -6.08190929 13.96713541 -5.125 11.60546875 C-4.69587059 10.54131241 -4.69587059 10.54131241 -4.2580719 9.45565796 C-2.95201553 6.23888268 -1.62131411 3.07193769 0 0 Z M3 13 C-0.23688933 19.18216701 -2.81583404 25.46499486 -5.25 32 C-6.4875 35.3 -7.725 38.6 -9 42 C-1.08 42 6.84 42 15 42 C11.37866293 32.31502878 7.73172326 22.64303709 4 13 C3.67 13 3.34 13 3 13 Z " fill="#191919" transform="translate(688,315)"/>
<path d="M0 0 C2.86019506 1.60074783 5.08862664 3.28006884 7.3125 5.6875 C6.26375002 8.30937494 5.66318687 9.48121361 3.1875 10.9375 C2.56875 11.185 1.95 11.4325 1.3125 11.6875 C0.590625 11.06875 -0.13125 10.45 -0.875 9.8125 C-6.22272218 5.7719988 -11.08546622 4.79564631 -17.6875 5.6875 C-21.35533779 6.8816557 -21.35533779 6.8816557 -23.6875 9.6875 C-24.50185942 12.85051921 -24.63297788 15.55527438 -23.6875 18.6875 C-19.28201439 24.42344227 -13.28448516 26.10846281 -6.72460938 28.47265625 C-0.87389397 30.73894127 2.86016585 33.38295159 6.3125 38.6875 C8.6129405 44.08853421 8.85345117 49.06054281 7.3125 54.6875 C4.99389836 59.32470329 2.0693207 62.49204429 -2.6875 64.6875 C-9.79801697 66.98700205 -19.74678595 66.93005542 -26.6875 64.125 C-31.10791216 61.80155755 -34.42649483 58.42035479 -37.6875 54.6875 C-35.2125 52.2125 -35.2125 52.2125 -32.6875 49.6875 C-32.17960937 50.09742188 -31.67171875 50.50734375 -31.1484375 50.9296875 C-23.91964682 56.58817908 -17.91313341 58.66098404 -8.6875 57.6875 C-5.41189934 56.51764262 -3.49422275 55.63452235 -1.25 53 C-0.3855737 49.44624743 -0.28310408 46.05428844 -1.6875 42.6875 C-6.04911985 38.31913885 -10.52137666 36.25134491 -16.25 34.125 C-22.4442283 31.80552789 -27.53977469 29.72393923 -31.5 24.125 C-33.36906748 18.7145415 -33.79004223 13.07610436 -31.99609375 7.5625 C-26.0355984 -4.00934034 -10.73405729 -5.27203699 0 0 Z " fill="#181818" transform="translate(492.6875,316.3125)"/>
<path d="M0 0 C2.1885346 1.55443202 4.0441544 3.14709365 6 5 C4.95125002 7.62187494 4.35068687 8.79371361 1.875 10.25 C1.25625 10.4975 0.6375 10.745 0 11 C-0.639375 10.401875 -1.27875 9.80375 -1.9375 9.1875 C-7.88470445 4.93949682 -14.71257063 2.98087673 -22 4 C-28.07731751 5.33783952 -32.63075982 7.42753935 -37 12 C-41.78012171 19.82898138 -42.74698802 26.88052121 -42 36 C-40.45033667 42.25760791 -38.03470577 46.84636774 -33 51 C-32.38125 51.556875 -31.7625 52.11375 -31.125 52.6875 C-25.239949 56.32238444 -18.35288486 57.01419256 -11.703125 55.46484375 C-6.87862538 53.98349571 -3.0425481 52.00599731 1 49 C4.16115776 50.36983503 4.9927092 50.9890638 7 54 C-1.19429751 61.83802371 -8.81381273 64.61058913 -20.16552734 64.47485352 C-25.8955813 64.22889044 -30.18125368 63.03920929 -35 60 C-35.93199219 59.4740625 -35.93199219 59.4740625 -36.8828125 58.9375 C-43.74732835 54.65832129 -48.29497177 47.32895288 -50.5234375 39.63671875 C-52.62967844 27.98333651 -50.9815563 18.22215348 -44.87109375 8.13671875 C-34.81474643 -5.42358233 -14.19085741 -8.27139361 0 0 Z " fill="#181818" transform="translate(933,318)"/>
<path d="M0 0 C4.32392389 2.25555337 6.80619854 4.98775568 8.9296875 9.31640625 C10.53832053 15.3959297 10.13139122 19.76678647 6.9296875 25.31640625 C3.50711659 29.26552653 0.60658611 31.96865205 -4.65625 32.65234375 C-10.64042547 32.73615573 -14.47817879 32.57253018 -19.0703125 28.31640625 C-23.12669604 22.94443886 -24.62372504 19.0680393 -24.0703125 12.31640625 C-22.26038638 7.04401278 -19.83578868 3.37119868 -15.0703125 0.31640625 C-10.21665609 -1.30147922 -4.91398121 -1.62254097 0 0 Z M-18.40625 6.89453125 C-21.02518533 11.01796134 -21.77356564 14.39363425 -21.0703125 19.31640625 C-19.33849853 24.18393072 -16.6329342 27.4100954 -12 29.7265625 C-7.49388541 31.10393761 -3.49837486 29.95110063 0.7421875 28.06640625 C4.37841353 25.15742542 5.64456742 22.41615511 6.8046875 17.94140625 C6.98750964 12.63956411 5.37048497 9.09338979 2.0546875 5.00390625 C-0.97157165 2.60070045 -3.64211107 1.54191174 -7.4453125 0.94140625 C-11.923579 1.58115861 -15.50098651 3.46258257 -18.40625 6.89453125 Z " fill="#4F5151" transform="translate(1239.0703125,243.68359375)"/>
<path d="M0 0 C1.918125 -0.0825 3.83625 -0.165 5.8125 -0.25 C7.43091797 -0.31960937 7.43091797 -0.31960937 9.08203125 -0.390625 C12 0 12 0 13.90625 1.85546875 C15.33715433 4.66106332 14.839102 6.02500199 14 9 C14 12.11227195 14.45627049 14.94152152 15 18 C13.68 18 12.36 18 11 18 C10.67 16.02 10.34 14.04 10 12 C7.03 11.505 7.03 11.505 4 11 C4 13.31 4 15.62 4 18 C2.68 18 1.36 18 0 18 C0 12.06 0 6.12 0 0 Z M4 2 C4 4.31 4 6.62 4 9 C5.98 8.67 7.96 8.34 10 8 C10.33 6.68 10.66 5.36 11 4 C8.04622502 1.63019987 8.04622502 1.63019987 4 2 Z " fill="#292A2B" transform="translate(1225,250)"/>
<path d="M0 0 C4.19774378 3.48105582 6.43201564 6.77338546 8 12 C8.3447461 17.71872943 7.04590159 22.08324802 3.46875 26.5546875 C1.22823113 28.75945341 -1.05895592 29.95429544 -4 31 C-6 30 -6 30 -7 28 C-1.25 25 -1.25 25 1 25 C3.60051282 18.17714916 4.43741047 13.94661984 2 7 C1.67 6.01 1.34 5.02 1 4 C-1.39068734 2.89363605 -1.39068734 2.89363605 -4 2 C-4.99 1.34 -5.98 0.68 -7 0 C-3.76820321 -1.0772656 -3.05133626 -1.25643258 0 0 Z " fill="#58595A" transform="translate(1241,245)"/>
<path d="M0 0 C0.90105469 0.00902344 1.80210938 0.01804688 2.73046875 0.02734375 C3.41753906 0.03894531 4.10460938 0.05054688 4.8125 0.0625 C4.8125 0.7225 4.8125 1.3825 4.8125 2.0625 C4.07644531 2.14886719 3.34039063 2.23523438 2.58203125 2.32421875 C-1.90536644 2.97035659 -5.33834915 3.48435474 -9.125 6.0625 C-11.92094127 10.12932367 -13.57319348 14.41798682 -15.1875 19.0625 C-15.5175 19.0625 -15.8475 19.0625 -16.1875 19.0625 C-16.56714752 14.31690599 -16.66978172 10.99261475 -14.4375 6.6875 C-10.09698086 1.62356101 -6.67634578 -0.08670579 0 0 Z " fill="#292A2B" transform="translate(1232.1875,242.9375)"/>
<path d="M0 0 C0.99 1.32 1.98 2.64 3 4 C2.07882556 8.49072539 -0.56162504 11.10863924 -4 14 C-7.3125 15.3125 -7.3125 15.3125 -10 16 C-10.33 15.01 -10.66 14.02 -11 13 C-5.25 10 -5.25 10 -3 10 C-2.01 6.7 -1.02 3.4 0 0 Z " fill="#595A5B" transform="translate(1245,260)"/>
<path d="M0 0 C1.9375 0.6875 1.9375 0.6875 4 2 C5.08835706 4.95411203 5.25203613 6.37831087 4.0625 9.3125 C3.5365625 10.1478125 3.5365625 10.1478125 3 11 C0.525 10.01 0.525 10.01 -2 9 C-1.34 8.34 -0.68 7.68 0 7 C0 6.01 0 5.02 0 4 C-0.66 3.34 -1.32 2.68 -2 2 C-1.34 1.34 -0.68 0.68 0 0 Z " fill="#515353" transform="translate(1235,250)"/>
<path d="M0 0 C4.66666667 0.66666667 9.33333333 1.33333333 14 2 C13.67 2.66 13.34 3.32 13 4 C11.58376784 4.05447047 10.16691809 4.09300508 8.75 4.125 C7.96109375 4.14820313 7.1721875 4.17140625 6.359375 4.1953125 C3.79268059 3.9828378 2.2083933 3.28654105 0 2 C0 1.34 0 0.68 0 0 Z " fill="#303132" transform="translate(1222,272)"/>
<path d="M0 0 C0.66 0.33 1.32 0.66 2 1 C-2.29 5.29 -6.58 9.58 -11 14 C-11 9.40845608 -8.09282279 7.18698368 -5 4 C-3.3719908 2.61973133 -1.71956118 1.26438322 0 0 Z " fill="#3C3C3C" transform="translate(686,154)"/>
<path d="M0 0 C0.66 0.33 1.32 0.66 2 1 C-2.29 5.29 -6.58 9.58 -11 14 C-11 9.40845608 -8.09282279 7.18698368 -5 4 C-3.3719908 2.61973133 -1.71956118 1.26438322 0 0 Z " fill="#86A16B" transform="translate(378,154)"/>
<path d="M0 0 C0.66 0.33 1.32 0.66 2 1 C-1.96 4.96 -5.92 8.92 -10 13 C-10.66 12.67 -11.32 12.34 -12 12 C-8.27653164 7.57905197 -4.70478962 3.42166518 0 0 Z " fill="#3C3C3C" transform="translate(846,154)"/>
<path d="M0 0 C0.66 0.33 1.32 0.66 2 1 C-1.96 4.96 -5.92 8.92 -10 13 C-10.66 12.67 -11.32 12.34 -12 12 C-8.27653164 7.57905197 -4.70478962 3.42166518 0 0 Z " fill="#86A16B" transform="translate(252,154)"/>
<path d="M0 0 C0.66 0 1.32 0 2 0 C1.40075776 4.19469571 0.42500059 8.00999834 -1 12 C-1.33 12 -1.66 12 -2 12 C-2.05422947 10.5629191 -2.09289723 9.12524538 -2.125 7.6875 C-2.14820313 6.88699219 -2.17140625 6.08648437 -2.1953125 5.26171875 C-2 3 -2 3 0 0 Z " fill="#252728" transform="translate(1218,250)"/>
<path d="M0 0 C0.66 0.33 1.32 0.66 2 1 C-1.3 4.3 -4.6 7.6 -8 11 C-8 7.0234755 -6.61988497 5.9109833 -4 3 C-1.75 1.1875 -1.75 1.1875 0 0 Z " fill="#404040" transform="translate(896,319)"/>
<path d="M0 0 C0.66 0 1.32 0 2 0 C2.625 3.375 2.625 3.375 3 7 C2.34 7.66 1.68 8.32 1 9 C0 8 0 8 -0.09765625 6.15234375 C-0.06510417 4.1015625 -0.03255208 2.05078125 0 0 Z " fill="#363738" transform="translate(1246,255)"/>
<path d="M0 0 C0.66 0.33 1.32 0.66 2 1 C-0.64 3.64 -3.28 6.28 -6 9 C-6 6 -6 6 -3.5625 3.375 C-2.716875 2.59125 -1.87125 1.8075 -1 1 C-0.67 0.67 -0.34 0.34 0 0 Z " fill="#484848" transform="translate(468,316)"/>
<path d="M0 0 C2 1 2 1 3 3 C1.35 4.32 -0.3 5.64 -2 7 C-2 6.34 -2 5.68 -2 5 C-2.66 4.67 -3.32 4.34 -4 4 C-2.68 2.68 -1.36 1.36 0 0 Z " fill="#5D5F5F" transform="translate(1222,245)"/>
</svg>
